<svg width="40" height="41" viewBox="0 0 40 41" fill="none" xmlns="http://www.w3.org/2000/svg">
<path d="M39.5 9.45833V35.9583C39.5 37.1729 39.0761 38.213 38.2282 39.0787C37.3788 39.9429 36.3583 40.375 35.1667 40.375H4.83333C3.64167 40.375 2.62117 39.9429 1.77183 39.0787C0.923944 38.213 0.5 37.1729 0.5 35.9583V5.04167C0.5 3.82708 0.923944 2.78696 1.77183 1.92129C2.62117 1.0571 3.64167 0.625 4.83333 0.625H30.8333L39.5 9.45833ZM35.1667 11.3354L28.9917 5.04167H4.83333V35.9583H35.1667V11.3354ZM20 33.75C21.8056 33.75 23.3403 33.1059 24.6042 31.8177C25.8681 30.5295 26.5 28.9653 26.5 27.125C26.5 25.2847 25.8681 23.7205 24.6042 22.4323C23.3403 21.1441 21.8056 20.5 20 20.5C18.1944 20.5 16.6597 21.1441 15.3958 22.4323C14.1319 23.7205 13.5 25.2847 13.5 27.125C13.5 28.9653 14.1319 30.5295 15.3958 31.8177C16.6597 33.1059 18.1944 33.75 20 33.75ZM7 16.0833H26.5V7.25H7V16.0833ZM4.83333 11.3354V35.9583V5.04167V11.3354Z" fill="#C83DDE"/>
</svg>
